<svg width="23" height="23" viewBox="0 0 23 23" fill="currentColor" xmlns="http://www.w3.org/2000/svg">
<path d="M16.2917 1.91675H6.70835C4.06199 1.91675 1.91669 4.06205 1.91669 6.70842V16.2917C1.91669 18.9381 4.06199 21.0834 6.70835 21.0834H16.2917C18.9381 21.0834 21.0834 18.9381 21.0834 16.2917V6.70842C21.0834 4.06205 18.9381 1.91675 16.2917 1.91675Z" stroke="white" stroke-width="2" stroke-linecap="round" stroke-linejoin="round"/>
<path d="M15.3333 10.8963C15.4516 11.6939 15.3154 12.5084 14.944 13.2241C14.5727 13.9398 13.9851 14.5201 13.2649 14.8826C12.5447 15.2451 11.7285 15.3713 10.9325 15.2432C10.1364 15.1151 9.40102 14.7393 8.83089 14.1692C8.26076 13.599 7.88491 12.8636 7.75682 12.0676C7.62872 11.2715 7.7549 10.4554 8.1174 9.73515C8.4799 9.01495 9.06027 8.42738 9.77595 8.05603C10.4916 7.68467 11.3062 7.54844 12.1038 7.66671C12.9173 7.78735 13.6705 8.16645 14.252 8.74801C14.8336 9.32956 15.2127 10.0827 15.3333 10.8963Z" stroke="white" stroke-width="2" stroke-linecap="round" stroke-linejoin="round"/>
<path d="M16.7708 6.22925H16.7812" stroke="currentColor" stroke-width="2" stroke-linecap="round" stroke-linejoin="round"/>
</svg>
