<svg width="23" height="23" viewBox="0 0 23 23" fill="none" xmlns="http://www.w3.org/2000/svg">
<g clip-path="url(#clip0)">
<path d="M22.0416 2.87512C21.1239 3.52245 20.1078 4.01755 19.0325 4.34137C18.4553 3.67773 17.6883 3.20736 16.8351 2.99388C15.9819 2.78039 15.0837 2.83409 14.262 3.14772C13.4403 3.46134 12.7347 4.01975 12.2408 4.74743C11.7468 5.4751 11.4882 6.33694 11.5 7.21637V8.1747C9.81584 8.21837 8.14703 7.84485 6.6422 7.08742C5.13736 6.32998 3.8432 5.21214 2.87498 3.83345C2.87498 3.83345 -0.958354 12.4584 7.66665 16.2918C5.69299 17.6315 3.34184 18.3033 0.958313 18.2085C9.58331 23.0001 20.125 18.2085 20.125 7.18762C20.1241 6.92068 20.0984 6.65439 20.0483 6.3922C21.0264 5.42763 21.7166 4.2098 22.0416 2.87512V2.87512Z" stroke="currentColor" stroke-width="2" stroke-linecap="round" stroke-linejoin="round"/>
</g>
<defs>
<clipPath id="clip0">
<rect width="23" height="23" fill="currentColor"/>
</clipPath>
</defs>
</svg>
